<svg xmlns="http://www.w3.org/2000/svg" xmlns:xlink="http://www.w3.org/1999/xlink" id="body_3" preserveAspectRatio="xMinYMin meet" viewBox="0 0 793 1123"><defs><clipPath id="1"><path id="" clip-rule="evenodd" transform="matrix(1 0 0 1 0 0)" d="M0 842L0 0L0 0L595 0L595 0L595 842L595 842L0 842z" /></clipPath><clipPath id="2"><path id="" clip-rule="evenodd" transform="matrix(1 0 0 1 0 0)" d="M0 534.4886L595 534.4886L595 534.4886L595 50L595 50L0 50z" /></clipPath></defs><g transform="matrix(1.333333 0 0 1.333333 0 0)"><g clip-path="url(#1)"><g clip-path="url(#2)"><path id="1" transform="matrix(1 0 0 -1 0 842)" d="M0 792L595 792L595 307.5114L0 307.5114z" stroke="none" fill="#FFFFFF" fill-rule="nonzero" /><path id="2" transform="matrix(1 0 0 -1 0 842)" d="M45.64603 782.3909C 45.64603 781.506 44.92896 780.7892 44.04441 780.7892C 43.15987 780.7892 42.44279 781.506 42.44279 782.3909C 42.44279 783.2756 43.15987 783.9924 44.04441 783.9924C 44.92896 783.9924 45.64603 783.2756 45.64603 782.3909z" stroke="#000000" stroke-width="0.8008075" fill="#000000" fill-rule="nonzero" /><path id="9" transform="matrix(1 0 0 -1 0 842)" d="M45.64603 764.7731C 45.64603 763.8882 44.92896 763.1714 44.04441 763.1714C 43.15987 763.1714 42.44279 763.8882 42.44279 764.7731C 42.44279 765.658 43.15987 766.3746 44.04441 766.3746C 44.92896 766.3746 45.64603 765.658 45.64603 764.7731z" stroke="#000000" stroke-width="0.8008075" fill="#000000" fill-rule="nonzero" /><path id="40" transform="matrix(1 0 0 -1 0 842)" d="M45.64603 747.1553C 45.64603 746.2704 44.92896 745.5537 44.04441 745.5537C 43.15987 745.5537 42.44279 746.2704 42.44279 747.1553C 42.44279 748.0402 43.15987 748.757 44.04441 748.757C 44.92896 748.757 45.64603 748.0402 45.64603 747.1553z" stroke="#000000" stroke-width="0.8008075" fill="#000000" fill-rule="nonzero" /><path id="66" transform="matrix(1 0 0 -1 0 842)" d="M45.64603 729.5375C 45.64603 728.6526 44.92896 727.9359 44.04441 727.9359C 43.15987 727.9359 42.44279 728.6526 42.44279 729.5375C 42.44279 730.4224 43.15987 731.1392 44.04441 731.1392C 44.92896 731.1392 45.64603 730.4224 45.64603 729.5375z" stroke="#000000" stroke-width="0.8008075" fill="#000000" fill-rule="nonzero" /><path id="85" transform="matrix(1 0 0 -1 0 842)" d="M45.64603 711.9198C 45.64603 711.0349 44.92896 710.3181 44.04441 710.3181C 43.15987 710.3181 42.44279 711.0349 42.44279 711.9198C 42.44279 712.8047 43.15987 713.5214 44.04441 713.5214C 44.92896 713.5214 45.64603 712.8047 45.64603 711.9198z" stroke="#000000" stroke-width="0.8008075" fill="#000000" fill-rule="nonzero" /><path id="124" transform="matrix(1 0 0 -1 0 842)" d="M30.43069 622.2288L112.0302 622.2288L112.0302 621.5281L30.43069 621.5281z" stroke="none" fill="#4082C3" fill-rule="nonzero" /><path id="143" transform="matrix(1 0 0 -1 0 842)" d="M208.1802 622.2288L264.2368 622.2288L264.2368 621.5281L208.1802 621.5281z" stroke="none" fill="#4082C3" fill-rule="nonzero" /><path id="156" transform="matrix(1 0 0 -1 0 842)" d="M444.4482 627.0336L444.4482 622.2288C 444.4482 620.902 443.3759 619.8264 442.0532 619.8264L442.0532 619.8264L394.7906 619.8264C 393.4679 619.8264 392.3957 620.902 392.3957 622.2288L392.3957 622.2288L392.3957 631.8385C 392.3957 633.1653 393.4679 634.2409 394.7906 634.2409L394.7906 634.2409L442.0532 634.2409C 443.3759 634.2409 444.4482 633.1653 444.4482 631.8385z" stroke="none" fill="#F7F7F7" fill-rule="nonzero" /><path id="157" transform="matrix(1 0 0 -1 0 842)" d="M443.6474 627.0336L443.6474 622.2288C 443.6474 621.3443 442.9326 620.6272 442.0509 620.6272L442.0509 620.6272L394.793 620.6272C 393.9113 620.6272 393.1965 621.3443 393.1965 622.2288L393.1965 622.2288L393.1965 631.8385C 393.1965 632.723 393.9113 633.4401 394.793 633.4401L394.793 633.4401L442.0509 633.4401C 442.9326 633.4401 443.6474 632.723 443.6474 631.8385zM444.4482 627.0336L444.4482 622.2288C 444.4482 620.902 443.3759 619.8264 442.0532 619.8264L442.0532 619.8264L394.7906 619.8264C 393.4679 619.8264 392.3957 620.902 392.3957 622.2288L392.3957 622.2288L392.3957 631.8385C 392.3957 633.1653 393.4679 634.2409 394.7906 634.2409L394.7906 634.2409L442.0532 634.2409C 443.3759 634.2409 444.4482 633.1653 444.4482 631.8385z" stroke="none" fill="#EAEAEA" fill-rule="evenodd" /><path id="167" transform="matrix(1 0 0 -1 0 842)" d="M520.9253 627.0336L520.9253 622.2288C 520.9253 620.902 519.8519 619.8264 518.5278 619.8264L518.5278 619.8264L486.886 619.8264C 485.5619 619.8264 484.4886 620.902 484.4886 622.2288L484.4886 622.2288L484.4886 631.8385C 484.4886 633.1653 485.5619 634.2409 486.886 634.2409L486.886 634.2409L518.5278 634.2409C 519.8519 634.2409 520.9253 633.1653 520.9253 631.8385z" stroke="none" fill="#F7F7F7" fill-rule="evenodd" /><path id="168" transform="matrix(1 0 0 -1 0 842)" d="M520.1245 627.0336L520.1245 622.2288C 520.1245 621.3443 519.409 620.6272 518.5263 620.6272L518.5263 620.6272L486.8875 620.6272C 486.0049 620.6272 485.2894 621.3443 485.2894 622.2288L485.2894 622.2288L485.2894 631.8385C 485.2894 632.723 486.0049 633.4401 486.8875 633.4401L486.8875 633.4401L518.5263 633.4401C 519.409 633.4401 520.1245 632.723 520.1245 631.8385zM520.9253 627.0336L520.9253 622.2288C 520.9253 620.902 519.8519 619.8264 518.5278 619.8264L518.5278 619.8264L486.886 619.8264C 485.5619 619.8264 484.4886 620.902 484.4886 622.2288L484.4886 622.2288L484.4886 631.8385C 484.4886 633.1653 485.5619 634.2409 486.886 634.2409L486.886 634.2409L518.5278 634.2409C 519.8519 634.2409 520.9253 633.1653 520.9253 631.8385z" stroke="none" fill="#EAEAEA" fill-rule="evenodd" /><path id="237" transform="matrix(1 0 0 -1 0 842)" d="M30.43069 557.3634L95.83727 557.3634L95.83727 556.6627L30.43069 556.6627z" stroke="none" fill="#4082C3" fill-rule="nonzero" /><path id="257" transform="matrix(1 0 0 -1 0 842)" d="M220.128 557.3634L226.6614 557.3634L226.6614 556.6627L220.128 556.6627zM182.4183 557.3634L214.0445 557.3634L214.0445 556.6627L182.4183 556.6627z" stroke="none" fill="#4082C3" fill-rule="nonzero" /><path id="273" transform="matrix(1 0 0 -1 0 842)" d="M381.5848 562.1682L381.5848 557.3634C 381.5848 556.0366 380.5092 554.961 379.1824 554.961L379.1824 554.961L351.9549 554.961C 350.6281 554.961 349.5525 556.0366 349.5525 557.3634L349.5525 557.3634L349.5525 566.9731C 349.5525 568.2999 350.6281 569.3755 351.9549 569.3755L351.9549 569.3755L379.1824 569.3755C 380.5092 569.3755 381.5848 568.2999 381.5848 566.9731z" stroke="none" fill="#F7F7F7" fill-rule="evenodd" /><path id="274" transform="matrix(1 0 0 -1 0 842)" d="M380.784 562.1682L380.784 557.3634C 380.784 556.4788 380.0669 555.7618 379.1824 555.7618L379.1824 555.7618L351.9549 555.7618C 351.0704 555.7618 350.3533 556.4788 350.3533 557.3634L350.3533 557.3634L350.3533 566.9731C 350.3533 567.8576 351.0704 568.5747 351.9549 568.5747L351.9549 568.5747L379.1824 568.5747C 380.0669 568.5747 380.784 567.8576 380.784 566.9731zM381.5848 562.1682L381.5848 557.3634C 381.5848 556.0366 380.5092 554.961 379.1824 554.961L379.1824 554.961L351.9549 554.961C 350.6281 554.961 349.5525 556.0366 349.5525 557.3634L349.5525 557.3634L349.5525 566.9731C 349.5525 568.2999 350.6281 569.3755 351.9549 569.3755L351.9549 569.3755L379.1824 569.3755C 380.5092 569.3755 381.5848 568.2999 381.5848 566.9731z" stroke="none" fill="#EAEAEA" fill-rule="evenodd" /><path id="306" transform="matrix(1 0 0 -1 0 842)" d="M30.43069 527.7335L144.4159 527.7335L144.4159 527.0328L30.43069 527.0328z" stroke="none" fill="#4082C3" fill-rule="nonzero" /><path id="370" transform="matrix(1 0 0 -1 0 842)" d="M30.43069 480.4859L110.1689 480.4859L110.1689 479.7852L30.43069 479.7852z" stroke="none" fill="#4082C3" fill-rule="nonzero" /><path id="426" transform="matrix(1 0 0 -1 0 842)" d="M102.103 467.6729L102.103 462.8681C 102.103 461.5413 101.0296 460.4657 99.70548 460.4657L99.70548 460.4657L68.0637 460.4657C 66.73961 460.4657 65.66622 461.5413 65.66622 462.8681L65.66622 462.8681L65.66622 472.4778C 65.66622 473.8046 66.73961 474.8802 68.0637 474.8802L68.0637 474.8802L99.70548 474.8802C 101.0296 474.8802 102.103 473.8046 102.103 472.4778z" stroke="none" fill="#F7F7F7" fill-rule="evenodd" /><path id="427" transform="matrix(1 0 0 -1 0 842)" d="M101.3022 467.6729L101.3022 462.8681C 101.3022 461.9836 100.5866 461.2665 99.70398 461.2665L99.70398 461.2665L68.0652 461.2665C 67.18255 461.2665 66.46703 461.9836 66.46703 462.8681L66.46703 462.8681L66.46703 472.4778C 66.46703 473.3623 67.18255 474.0794 68.0652 474.0794L68.0652 474.0794L99.70398 474.0794C 100.5866 474.0794 101.3022 473.3623 101.3022 472.4778zM102.103 467.6729L102.103 462.8681C 102.103 461.5413 101.0296 460.4657 99.70548 460.4657L99.70548 460.4657L68.0637 460.4657C 66.73961 460.4657 65.66622 461.5413 65.66622 462.8681L65.66622 462.8681L65.66622 472.4778C 65.66622 473.8046 66.73961 474.8802 68.0637 474.8802L68.0637 474.8802L99.70548 474.8802C 101.0296 474.8802 102.103 473.8046 102.103 472.4778z" stroke="none" fill="#EAEAEA" fill-rule="evenodd" /><path id="444" transform="matrix(1 0 0 -1 0 842)" d="M283.0855 467.6729L283.0855 462.8681C 283.0855 461.5413 282.0099 460.4657 280.683 460.4657L280.683 460.4657L242.2443 460.4657C 240.9175 460.4657 239.8419 461.5413 239.8419 462.8681L239.8419 462.8681L239.8419 472.4778C 239.8419 473.8046 240.9175 474.8802 242.2443 474.8802L242.2443 474.8802L280.683 474.8802C 282.0099 474.8802 283.0855 473.8046 283.0855 472.4778z" stroke="none" fill="#F7F7F7" fill-rule="evenodd" /><path id="445" transform="matrix(1 0 0 -1 0 842)" d="M282.2847 467.6729L282.2847 462.8681C 282.2847 461.9836 281.5676 461.2665 280.683 461.2665L280.683 461.2665L242.2443 461.2665C 241.3597 461.2665 240.6427 461.9836 240.6427 462.8681L240.6427 462.8681L240.6427 472.4778C 240.6427 473.3623 241.3597 474.0794 242.2443 474.0794L242.2443 474.0794L280.683 474.0794C 281.5676 474.0794 282.2847 473.3623 282.2847 472.4778zM283.0855 467.6729L283.0855 462.8681C 283.0855 461.5413 282.0099 460.4657 280.683 460.4657L280.683 460.4657L242.2443 460.4657C 240.9175 460.4657 239.8419 461.5413 239.8419 462.8681L239.8419 462.8681L239.8419 472.4778C 239.8419 473.8046 240.9175 474.8802 242.2443 474.8802L242.2443 474.8802L280.683 474.8802C 282.0099 474.8802 283.0855 473.8046 283.0855 472.4778z" stroke="none" fill="#EAEAEA" fill-rule="evenodd" /><path id="485" transform="matrix(1 0 0 -1 0 842)" d="M104.5054 450.0552L104.5054 445.2503C 104.5054 443.9235 103.4282 442.8479 102.0994 442.8479L102.0994 442.8479L56.86094 442.8479C 55.53213 442.8479 54.45491 443.9235 54.45491 445.2503L54.45491 445.2503L54.45491 454.86C 54.45491 456.1868 55.53213 457.2625 56.86094 457.2625L56.86094 457.2625L102.0994 457.2625C 103.4282 457.2625 104.5054 456.1868 104.5054 454.86z" stroke="none" fill="#F7F7F7" fill-rule="evenodd" /><path id="486" transform="matrix(1 0 0 -1 0 842)" d="M103.7046 450.0552L103.7046 445.2503C 103.7046 444.3658 102.9864 443.6487 102.1005 443.6487L102.1005 443.6487L56.85982 443.6487C 55.9739 443.6487 55.25572 444.3658 55.25572 445.2503L55.25572 445.2503L55.25572 454.86C 55.25572 455.7446 55.9739 456.4616 56.85982 456.4616L56.85982 456.4616L102.1005 456.4616C 102.9864 456.4616 103.7046 455.7446 103.7046 454.86zM104.5054 450.0552L104.5054 445.2503C 104.5054 443.9235 103.4282 442.8479 102.0994 442.8479L102.0994 442.8479L56.86094 442.8479C 55.53213 442.8479 54.45491 443.9235 54.45491 445.2503L54.45491 445.2503L54.45491 454.86C 54.45491 456.1868 55.53213 457.2625 56.86094 457.2625L56.86094 457.2625L102.0994 457.2625C 103.4282 457.2625 104.5054 456.1868 104.5054 454.86z" stroke="none" fill="#EAEAEA" fill-rule="evenodd" /><path id="498" transform="matrix(1 0 0 -1 0 842)" d="M233.8358 450.0552L233.8358 445.2503C 233.8358 443.9235 232.7615 442.8479 231.4364 442.8479L231.4364 442.8479L166.1646 442.8479C 164.8394 442.8479 163.7651 443.9235 163.7651 445.2503L163.7651 445.2503L163.7651 454.86C 163.7651 456.1868 164.8394 457.2625 166.1646 457.2625L166.1646 457.2625L231.4364 457.2625C 232.7615 457.2625 233.8358 456.1868 233.8358 454.86z" stroke="none" fill="#F7F7F7" fill-rule="evenodd" /><path id="499" transform="matrix(1 0 0 -1 0 842)" d="M233.035 450.0552L233.035 445.2503C 233.035 444.3658 232.3188 443.6487 231.4354 443.6487L231.4354 443.6487L166.1655 443.6487C 165.2821 443.6487 164.5659 444.3658 164.5659 445.2503L164.5659 445.2503L164.5659 454.86C 164.5659 455.7446 165.2821 456.4616 166.1655 456.4616L166.1655 456.4616L231.4354 456.4616C 232.3188 456.4616 233.035 455.7446 233.035 454.86zM233.8358 450.0552L233.8358 445.2503C 233.8358 443.9235 232.7615 442.8479 231.4364 442.8479L231.4364 442.8479L166.1646 442.8479C 164.8394 442.8479 163.7651 443.9235 163.7651 445.2503L163.7651 445.2503L163.7651 454.86C 163.7651 456.1868 164.8394 457.2625 166.1646 457.2625L166.1646 457.2625L231.4364 457.2625C 232.7615 457.2625 233.8358 456.1868 233.8358 454.86z" stroke="none" fill="#EAEAEA" fill-rule="evenodd" /></g></g></g></svg>