<svg xmlns="http://www.w3.org/2000/svg" xmlns:xlink="http://www.w3.org/1999/xlink" id="body_1" preserveAspectRatio="xMinYMin meet" viewBox="0 0 793 1123"><defs><clipPath id="1"><path id="" clip-rule="evenodd" transform="matrix(1 0 0 1 0 0)" d="M0 842L0 0L0 0L595 0L595 0L595 842L595 842L0 842z" /></clipPath><clipPath id="2"><path id="" clip-rule="evenodd" transform="matrix(1 0 0 1 0 0)" d="M0 791.5478L595 791.5478L595 791.5478L595 50L595 50L0 50z" /></clipPath></defs><g transform="matrix(1.333333 0 0 1.333333 0 0)"><g clip-path="url(#1)"><g clip-path="url(#2)"><path id="1" transform="matrix(1 0 0 -1 0 842)" d="M0 792L595 792L595 50.45222L0 50.45222z" stroke="none" fill="#FFFFFF" fill-rule="nonzero" /><path id="62" transform="matrix(1 0 0 -1 0 842)" d="M95.22415 592.5989L128.8581 592.5989L128.8581 591.8982L95.22415 591.8982z" stroke="none" fill="#4183C4" fill-rule="nonzero" /><path id="66" transform="matrix(1 0 0 -1 0 842)" d="M140.0694 592.5989L162.492 592.5989L162.492 591.8982L140.0694 591.8982z" stroke="none" fill="#4082C3" fill-rule="nonzero" /><path id="101" transform="matrix(1 0 0 -1 0 842)" d="M138.1161 574.9812L198.6331 574.9812L198.6331 574.2805L138.1161 574.2805zM76.86088 574.9812L134.4254 574.9812L134.4254 574.2805L76.86088 574.2805zM60.95522 574.9812L70.77733 574.9812L70.77733 574.2805L60.95522 574.2805z" stroke="none" fill="#4082C3" fill-rule="nonzero" /><path id="121" transform="matrix(1 0 0 -1 0 842)" d="M67.40938 557.3634L122.7282 557.3634L122.7282 556.6627L67.40938 556.6627z" stroke="none" fill="#4082C3" fill-rule="nonzero" /><path id="142" transform="matrix(1 0 0 -1 0 842)" d="M87.46454 539.7456L125.0055 539.7456L125.0055 539.0449L87.46454 539.0449zM65.16493 539.7456L81.38099 539.7456L81.38099 539.0449L65.16493 539.0449zM57.22724 539.7456L62.77815 539.7456L62.77815 539.0449L57.22724 539.0449z" stroke="none" fill="#4082C3" fill-rule="nonzero" /><g transform="matrix(0.8008074 0 0 0.8008074 30.43069 323.8762)"><g transform="matrix(1 0 0 1 0 0)"><image x="0" y="0" xlink:href="img_01.png" width="258" height="258" /></g></g><path id="201" transform="matrix(1 0 0 -1 0 842)" d="M239.041 217.821L239.041 213.0162C 239.041 211.6893 237.9654 210.6137 236.6386 210.6137L236.6386 210.6137L175.7773 210.6137C 174.4504 210.6137 173.3748 211.6893 173.3748 213.0162L173.3748 213.0162L173.3748 222.6258C 173.3748 223.9527 174.4504 225.0283 175.7773 225.0283L175.7773 225.0283L236.6386 225.0283C 237.9654 225.0283 239.041 223.9527 239.041 222.6258z" stroke="none" fill="#F7F7F7" fill-rule="nonzero" /><path id="202" transform="matrix(1 0 0 -1 0 842)" d="M238.2402 217.821L238.2402 213.0162C 238.2402 212.1316 237.5232 211.4145 236.6386 211.4145L236.6386 211.4145L175.7773 211.4145C 174.8927 211.4145 174.1756 212.1316 174.1756 213.0162L174.1756 213.0162L174.1756 222.6258C 174.1756 223.5104 174.8927 224.2275 175.7773 224.2275L175.7773 224.2275L236.6386 224.2275C 237.5232 224.2275 238.2402 223.5104 238.2402 222.6258zM239.041 217.821L239.041 213.0162C 239.041 211.6893 237.9654 210.6137 236.6386 210.6137L236.6386 210.6137L175.7773 210.6137C 174.4504 210.6137 173.3748 211.6893 173.3748 213.0162L173.3748 213.0162L173.3748 222.6258C 173.3748 223.9527 174.4504 225.0283 175.7773 225.0283L175.7773 225.0283L236.6386 225.0283C 237.9654 225.0283 239.041 223.9527 239.041 222.6258z" stroke="none" fill="#EAEAEA" fill-rule="evenodd" /><path id="209" transform="matrix(1 0 0 -1 0 842)" d="M307.9105 217.821L307.9105 213.0162C 307.9105 211.6893 306.8349 210.6137 305.5081 210.6137L305.5081 210.6137L255.858 210.6137C 254.5312 210.6137 253.4556 211.6893 253.4556 213.0162L253.4556 213.0162L253.4556 222.6258C 253.4556 223.9527 254.5312 225.0283 255.858 225.0283L255.858 225.0283L305.5081 225.0283C 306.8349 225.0283 307.9105 223.9527 307.9105 222.6258z" stroke="none" fill="#F7F7F7" fill-rule="evenodd" /><path id="210" transform="matrix(1 0 0 -1 0 842)" d="M307.1097 217.821L307.1097 213.0162C 307.1097 212.1316 306.3926 211.4145 305.5081 211.4145L305.5081 211.4145L255.858 211.4145C 254.9735 211.4145 254.2564 212.1316 254.2564 213.0162L254.2564 213.0162L254.2564 222.6258C 254.2564 223.5104 254.9735 224.2275 255.858 224.2275L255.858 224.2275L305.5081 224.2275C 306.3926 224.2275 307.1097 223.5104 307.1097 222.6258zM307.9105 217.821L307.9105 213.0162C 307.9105 211.6893 306.8349 210.6137 305.5081 210.6137L305.5081 210.6137L255.858 210.6137C 254.5312 210.6137 253.4556 211.6893 253.4556 213.0162L253.4556 213.0162L253.4556 222.6258C 253.4556 223.9527 254.5312 225.0283 255.858 225.0283L255.858 225.0283L305.5081 225.0283C 306.8349 225.0283 307.9105 223.9527 307.9105 222.6258z" stroke="none" fill="#EAEAEA" fill-rule="evenodd" /><path id="216" transform="matrix(1 0 0 -1 0 842)" d="M365.5686 217.821L365.5686 213.0162C 365.5686 211.6893 364.493 210.6137 363.1662 210.6137L363.1662 210.6137L324.7275 210.6137C 323.4006 210.6137 322.325 211.6893 322.325 213.0162L322.325 213.0162L322.325 222.6258C 322.325 223.9527 323.4006 225.0283 324.7275 225.0283L324.7275 225.0283L363.1662 225.0283C 364.493 225.0283 365.5686 223.9527 365.5686 222.6258z" stroke="none" fill="#F7F7F7" fill-rule="evenodd" /><path id="217" transform="matrix(1 0 0 -1 0 842)" d="M364.7678 217.821L364.7678 213.0162C 364.7678 212.1316 364.0508 211.4145 363.1662 211.4145L363.1662 211.4145L324.7275 211.4145C 323.8429 211.4145 323.1258 212.1316 323.1258 213.0162L323.1258 213.0162L323.1258 222.6258C 323.1258 223.5104 323.8429 224.2275 324.7275 224.2275L324.7275 224.2275L363.1662 224.2275C 364.0508 224.2275 364.7678 223.5104 364.7678 222.6258zM365.5686 217.821L365.5686 213.0162C 365.5686 211.6893 364.493 210.6137 363.1662 210.6137L363.1662 210.6137L324.7275 210.6137C 323.4006 210.6137 322.325 211.6893 322.325 213.0162L322.325 213.0162L322.325 222.6258C 322.325 223.9527 323.4006 225.0283 324.7275 225.0283L324.7275 225.0283L363.1662 225.0283C 364.493 225.0283 365.5686 223.9527 365.5686 222.6258z" stroke="none" fill="#EAEAEA" fill-rule="evenodd" /><path id="241" transform="matrix(1 0 0 -1 0 842)" d="M108.9098 158.5612L108.9098 153.7564C 108.9098 152.4296 107.8342 151.354 106.5074 151.354L106.5074 151.354L79.27995 151.354C 77.95313 151.354 76.87752 152.4296 76.87752 153.7564L76.87752 153.7564L76.87752 163.3661C 76.87752 164.6929 77.95313 165.7685 79.27995 165.7685L79.27995 165.7685L106.5074 165.7685C 107.8342 165.7685 108.9098 164.6929 108.9098 163.3661z" stroke="none" fill="#F7F7F7" fill-rule="evenodd" /><path id="242" transform="matrix(1 0 0 -1 0 842)" d="M108.109 158.5612L108.109 153.7564C 108.109 152.8718 107.392 152.1548 106.5074 152.1548L106.5074 152.1548L79.27995 152.1548C 78.3954 152.1548 77.67833 152.8718 77.67833 153.7564L77.67833 153.7564L77.67833 163.3661C 77.67833 164.2506 78.3954 164.9677 79.27995 164.9677L79.27995 164.9677L106.5074 164.9677C 107.392 164.9677 108.109 164.2506 108.109 163.3661zM108.9098 158.5612L108.9098 153.7564C 108.9098 152.4296 107.8342 151.354 106.5074 151.354L106.5074 151.354L79.27995 151.354C 77.95313 151.354 76.87752 152.4296 76.87752 153.7564L76.87752 153.7564L76.87752 163.3661C 76.87752 164.6929 77.95313 165.7685 79.27995 165.7685L79.27995 165.7685L106.5074 165.7685C 107.8342 165.7685 108.9098 164.6929 108.9098 163.3661z" stroke="none" fill="#EAEAEA" fill-rule="evenodd" /><path id="258" transform="matrix(1 0 0 -1 0 842)" d="M308.7113 158.5612L308.7113 153.7564C 308.7113 152.4296 307.6357 151.354 306.3089 151.354L306.3089 151.354L245.4475 151.354C 244.1207 151.354 243.0451 152.4296 243.0451 153.7564L243.0451 153.7564L243.0451 163.3661C 243.0451 164.6929 244.1207 165.7685 245.4475 165.7685L245.4475 165.7685L306.3089 165.7685C 307.6357 165.7685 308.7113 164.6929 308.7113 163.3661z" stroke="none" fill="#F7F7F7" fill-rule="evenodd" /><path id="259" transform="matrix(1 0 0 -1 0 842)" d="M307.9105 158.5612L307.9105 153.7564C 307.9105 152.8718 307.1934 152.1548 306.3089 152.1548L306.3089 152.1548L245.4475 152.1548C 244.563 152.1548 243.8459 152.8718 243.8459 153.7564L243.8459 153.7564L243.8459 163.3661C 243.8459 164.2506 244.563 164.9677 245.4475 164.9677L245.4475 164.9677L306.3089 164.9677C 307.1934 164.9677 307.9105 164.2506 307.9105 163.3661zM308.7113 158.5612L308.7113 153.7564C 308.7113 152.4296 307.6357 151.354 306.3089 151.354L306.3089 151.354L245.4475 151.354C 244.1207 151.354 243.0451 152.4296 243.0451 153.7564L243.0451 153.7564L243.0451 163.3661C 243.0451 164.6929 244.1207 165.7685 245.4475 165.7685L245.4475 165.7685L306.3089 165.7685C 307.6357 165.7685 308.7113 164.6929 308.7113 163.3661z" stroke="none" fill="#EAEAEA" fill-rule="evenodd" /><path id="270" transform="matrix(1 0 0 -1 0 842)" d="M422.426 158.5612L422.426 153.7564C 422.426 152.4296 421.3504 151.354 420.0236 151.354L420.0236 151.354L370.3735 151.354C 369.0467 151.354 367.9711 152.4296 367.9711 153.7564L367.9711 153.7564L367.9711 163.3661C 367.9711 164.6929 369.0467 165.7685 370.3735 165.7685L370.3735 165.7685L420.0236 165.7685C 421.3504 165.7685 422.426 164.6929 422.426 163.3661z" stroke="none" fill="#F7F7F7" fill-rule="evenodd" /><path id="271" transform="matrix(1 0 0 -1 0 842)" d="M421.6252 158.5612L421.6252 153.7564C 421.6252 152.8718 420.9081 152.1548 420.0236 152.1548L420.0236 152.1548L370.3735 152.1548C 369.4889 152.1548 368.7719 152.8718 368.7719 153.7564L368.7719 153.7564L368.7719 163.3661C 368.7719 164.2506 369.4889 164.9677 370.3735 164.9677L370.3735 164.9677L420.0236 164.9677C 420.9081 164.9677 421.6252 164.2506 421.6252 163.3661zM422.426 158.5612L422.426 153.7564C 422.426 152.4296 421.3504 151.354 420.0236 151.354L420.0236 151.354L370.3735 151.354C 369.0467 151.354 367.9711 152.4296 367.9711 153.7564L367.9711 153.7564L367.9711 163.3661C 367.9711 164.6929 369.0467 165.7685 370.3735 165.7685L370.3735 165.7685L420.0236 165.7685C 421.3504 165.7685 422.426 164.6929 422.426 163.3661z" stroke="none" fill="#EAEAEA" fill-rule="evenodd" /><path id="281" transform="matrix(1 0 0 -1 0 842)" d="M75.27591 90.4926L75.27591 85.68775C 75.27591 84.36093 74.20031 83.28533 72.87349 83.28533L72.87349 83.28533L34.43472 83.28533C 33.1079 83.28533 32.0323 84.36093 32.0323 85.68775L32.0323 85.68775L32.0323 95.29744C 32.0323 96.62427 33.1079 97.69987 34.43472 97.69987L34.43472 97.69987L72.87349 97.69987C 74.20031 97.69987 75.27591 96.62427 75.27591 95.29744z" stroke="none" fill="#F7F7F7" fill-rule="evenodd" /><path id="282" transform="matrix(1 0 0 -1 0 842)" d="M74.4751 90.4926L74.4751 85.68775C 74.4751 84.80321 73.75803 84.08614 72.87349 84.08614L72.87349 84.08614L34.43472 84.08614C 33.55018 84.08614 32.83311 84.80321 32.83311 85.68775L32.83311 85.68775L32.83311 95.29744C 32.83311 96.18199 33.55018 96.89906 34.43472 96.89906L34.43472 96.89906L72.87349 96.89906C 73.75803 96.89906 74.4751 96.18199 74.4751 95.29744zM75.27591 90.4926L75.27591 85.68775C 75.27591 84.36093 74.20031 83.28533 72.87349 83.28533L72.87349 83.28533L34.43472 83.28533C 33.1079 83.28533 32.0323 84.36093 32.0323 85.68775L32.0323 85.68775L32.0323 95.29744C 32.0323 96.62427 33.1079 97.69987 34.43472 97.69987L34.43472 97.69987L72.87349 97.69987C 74.20031 97.69987 75.27591 96.62427 75.27591 95.29744z" stroke="none" fill="#EAEAEA" fill-rule="evenodd" /><path id="304" transform="matrix(1 0 0 -1 0 842)" d="M64.0646 60.86272L64.0646 56.05787C 64.0646 54.73105 62.989 53.65545 61.66218 53.65545L61.66218 53.65545L34.43472 53.65545C 33.1079 53.65545 32.0323 54.73105 32.0323 56.05787L32.0323 56.05787L32.0323 65.66757C 32.0323 66.99439 33.1079 68.06999 34.43472 68.06999L34.43472 68.06999L61.66218 68.06999C 62.989 68.06999 64.0646 66.99439 64.0646 65.66757z" stroke="none" fill="#F7F7F7" fill-rule="evenodd" /><path id="305" transform="matrix(1 0 0 -1 0 842)" d="M63.2638 60.86272L63.2638 56.05787C 63.2638 55.17333 62.54673 54.45626 61.66218 54.45626L61.66218 54.45626L34.43472 54.45626C 33.55018 54.45626 32.83311 55.17333 32.83311 56.05787L32.83311 56.05787L32.83311 65.66757C 32.83311 66.55211 33.55018 67.26918 34.43472 67.26918L34.43472 67.26918L61.66218 67.26918C 62.54673 67.26918 63.2638 66.55211 63.2638 65.66757zM64.0646 60.86272L64.0646 56.05787C 64.0646 54.73105 62.989 53.65545 61.66218 53.65545L61.66218 53.65545L34.43472 53.65545C 33.1079 53.65545 32.0323 54.73105 32.0323 56.05787L32.0323 56.05787L32.0323 65.66757C 32.0323 66.99439 33.1079 68.06999 34.43472 68.06999L34.43472 68.06999L61.66218 68.06999C 62.989 68.06999 64.0646 66.99439 64.0646 65.66757z" stroke="none" fill="#EAEAEA" fill-rule="evenodd" /></g></g></g></svg>