<svg xmlns="http://www.w3.org/2000/svg" xmlns:xlink="http://www.w3.org/1999/xlink" id="body_2" preserveAspectRatio="xMinYMin meet" viewBox="0 0 793 1123"><defs><clipPath id="1"><path id="" clip-rule="evenodd" transform="matrix(1 0 0 1 0 0)" d="M0 842L0 0L0 0L595 0L595 0L595 842L595 842L0 842z" /></clipPath><clipPath id="2"><path id="" clip-rule="evenodd" transform="matrix(1 0 0 1 0 0)" d="M0 791.5478L595 791.5478L595 791.5478L595 50L595 50L0 50z" /></clipPath></defs><g transform="matrix(1.333333 0 0 1.333333 0 0)"><g clip-path="url(#1)"><g clip-path="url(#2)"><path id="1" transform="matrix(1 0 0 -1 0 842)" d="M0 792L595 792L595 50.45222L0 50.45222z" stroke="none" fill="#FFFFFF" fill-rule="nonzero" /><path id="2" transform="matrix(1 0 0 -1 0 842)" d="M97.69852 783.1911L97.69852 778.3863C 97.69852 777.0595 96.62292 775.9838 95.2961 775.9838L95.2961 775.9838L34.43472 775.9838C 33.1079 775.9838 32.0323 777.0595 32.0323 778.3863L32.0323 778.3863L32.0323 787.996C 32.0323 789.3228 33.1079 790.3984 34.43472 790.3984L34.43472 790.3984L95.2961 790.3984C 96.62292 790.3984 97.69852 789.3228 97.69852 787.996z" stroke="none" fill="#F7F7F7" fill-rule="nonzero" /><path id="3" transform="matrix(1 0 0 -1 0 842)" d="M96.89771 783.1911L96.89771 778.3863C 96.89771 777.5017 96.18064 776.7847 95.2961 776.7847L95.2961 776.7847L34.43472 776.7847C 33.55018 776.7847 32.83311 777.5017 32.83311 778.3863L32.83311 778.3863L32.83311 787.996C 32.83311 788.8805 33.55018 789.5976 34.43472 789.5976L34.43472 789.5976L95.2961 789.5976C 96.18064 789.5976 96.89771 788.8805 96.89771 787.996zM97.69852 783.1911L97.69852 778.3863C 97.69852 777.0595 96.62292 775.9838 95.2961 775.9838L95.2961 775.9838L34.43472 775.9838C 33.1079 775.9838 32.0323 777.0595 32.0323 778.3863L32.0323 778.3863L32.0323 787.996C 32.0323 789.3228 33.1079 790.3984 34.43472 790.3984L34.43472 790.3984L95.2961 790.3984C 96.62292 790.3984 97.69852 789.3228 97.69852 787.996z" stroke="none" fill="#EAEAEA" fill-rule="evenodd" /><path id="25" transform="matrix(1 0 0 -1 0 842)" d="M30.43069 710.3176L52.8533 710.3176L52.8533 709.6169L30.43069 709.6169z" stroke="none" fill="#4082C3" fill-rule="nonzero" /><path id="107" transform="matrix(1 0 0 -1 0 842)" d="M86.48721 667.8748L86.48721 663.07C 86.48721 661.7432 85.41161 660.6676 84.08479 660.6676L84.08479 660.6676L34.43472 660.6676C 33.1079 660.6676 32.0323 661.7432 32.0323 663.07L32.0323 663.07L32.0323 672.6797C 32.0323 674.0065 33.1079 675.0821 34.43472 675.0821L34.43472 675.0821L84.08479 675.0821C 85.41161 675.0821 86.48721 674.0065 86.48721 672.6797z" stroke="none" fill="#F7F7F7" fill-rule="evenodd" /><path id="108" transform="matrix(1 0 0 -1 0 842)" d="M85.68641 667.8748L85.68641 663.07C 85.68641 662.1854 84.96934 661.4684 84.08479 661.4684L84.08479 661.4684L34.43472 661.4684C 33.55018 661.4684 32.83311 662.1854 32.83311 663.07L32.83311 663.07L32.83311 672.6797C 32.83311 673.5642 33.55018 674.2813 34.43472 674.2813L34.43472 674.2813L84.08479 674.2813C 84.96934 674.2813 85.68641 673.5642 85.68641 672.6797zM86.48721 667.8748L86.48721 663.07C 86.48721 661.7432 85.41161 660.6676 84.08479 660.6676L84.08479 660.6676L34.43472 660.6676C 33.1079 660.6676 32.0323 661.7432 32.0323 663.07L32.0323 663.07L32.0323 672.6797C 32.0323 674.0065 33.1079 675.0821 34.43472 675.0821L34.43472 675.0821L84.08479 675.0821C 85.41161 675.0821 86.48721 674.0065 86.48721 672.6797z" stroke="none" fill="#EAEAEA" fill-rule="evenodd" /><path id="176" transform="matrix(1 0 0 -1 0 842)" d="M30.43069 615.8223L86.48721 615.8223L86.48721 615.1216L30.43069 615.1216z" stroke="none" fill="#4082C3" fill-rule="nonzero" /><path id="262" transform="matrix(1 0 0 -1 0 842)" d="M86.48721 573.3795L86.48721 568.5747C 86.48721 567.2479 85.41161 566.1723 84.08479 566.1723L84.08479 566.1723L34.43472 566.1723C 33.1079 566.1723 32.0323 567.2479 32.0323 568.5747L32.0323 568.5747L32.0323 578.1844C 32.0323 579.5112 33.1079 580.5868 34.43472 580.5868L34.43472 580.5868L84.08479 580.5868C 85.41161 580.5868 86.48721 579.5112 86.48721 578.1844z" stroke="none" fill="#F7F7F7" fill-rule="evenodd" /><path id="263" transform="matrix(1 0 0 -1 0 842)" d="M85.68641 573.3795L85.68641 568.5747C 85.68641 567.6901 84.96934 566.9731 84.08479 566.9731L84.08479 566.9731L34.43472 566.9731C 33.55018 566.9731 32.83311 567.6901 32.83311 568.5747L32.83311 568.5747L32.83311 578.1844C 32.83311 579.0689 33.55018 579.786 34.43472 579.786L34.43472 579.786L84.08479 579.786C 84.96934 579.786 85.68641 579.0689 85.68641 578.1844zM86.48721 573.3795L86.48721 568.5747C 86.48721 567.2479 85.41161 566.1723 84.08479 566.1723L84.08479 566.1723L34.43472 566.1723C 33.1079 566.1723 32.0323 567.2479 32.0323 568.5747L32.0323 568.5747L32.0323 578.1844C 32.0323 579.5112 33.1079 580.5868 34.43472 580.5868L34.43472 580.5868L84.08479 580.5868C 85.41161 580.5868 86.48721 579.5112 86.48721 578.1844z" stroke="none" fill="#EAEAEA" fill-rule="evenodd" /><path id="331" transform="matrix(1 0 0 -1 0 842)" d="M30.43069 521.3271L64.0646 521.3271L64.0646 520.6263L30.43069 520.6263z" stroke="none" fill="#4082C3" fill-rule="nonzero" /><path id="335" transform="matrix(1 0 0 -1 0 842)" d="M132.5336 526.1319L132.5336 521.3271C 132.5336 520.0002 131.458 518.9246 130.1312 518.9246L130.1312 518.9246L102.9038 518.9246C 101.5769 518.9246 100.5013 520.0002 100.5013 521.3271L100.5013 521.3271L100.5013 530.9367C 100.5013 532.2636 101.5769 533.3392 102.9038 533.3392L102.9038 533.3392L130.1312 533.3392C 131.458 533.3392 132.5336 532.2636 132.5336 530.9367z" stroke="none" fill="#F7F7F7" fill-rule="evenodd" /><path id="336" transform="matrix(1 0 0 -1 0 842)" d="M131.7328 526.1319L131.7328 521.3271C 131.7328 520.4425 131.0158 519.7254 130.1312 519.7254L130.1312 519.7254L102.9038 519.7254C 102.0192 519.7254 101.3022 520.4425 101.3022 521.3271L101.3022 521.3271L101.3022 530.9367C 101.3022 531.8213 102.0192 532.5384 102.9038 532.5384L102.9038 532.5384L130.1312 532.5384C 131.0158 532.5384 131.7328 531.8213 131.7328 530.9367zM132.5336 526.1319L132.5336 521.3271C 132.5336 520.0002 131.458 518.9246 130.1312 518.9246L130.1312 518.9246L102.9038 518.9246C 101.5769 518.9246 100.5013 520.0002 100.5013 521.3271L100.5013 521.3271L100.5013 530.9367C 100.5013 532.2636 101.5769 533.3392 102.9038 533.3392L102.9038 533.3392L130.1312 533.3392C 131.458 533.3392 132.5336 532.2636 132.5336 530.9367z" stroke="none" fill="#EAEAEA" fill-rule="evenodd" /><path id="362" transform="matrix(1 0 0 -1 0 842)" d="M260.4627 521.3271L328.5462 521.3271L328.5462 520.6263L260.4627 520.6263zM249.4101 521.3271L258.0759 521.3271L258.0759 520.6263L249.4101 520.6263z" stroke="none" fill="#4082C3" fill-rule="nonzero" /><path id="377" transform="matrix(1 0 0 -1 0 842)" d="M341.3231 521.3271L429.1578 521.3271L429.1578 520.6263L341.3231 520.6263z" stroke="none" fill="#4082C3" fill-rule="nonzero" /><path id="383" transform="matrix(1 0 0 -1 0 842)" d="M441.9347 521.3271L473.6964 521.3271L473.6964 520.6263L441.9347 520.6263z" stroke="none" fill="#4082C3" fill-rule="nonzero" /><path id="398" transform="matrix(1 0 0 -1 0 842)" d="M131.3324 508.5141L131.3324 503.7093C 131.3324 502.3825 130.2568 501.3069 128.93 501.3069L128.93 501.3069L101.7026 501.3069C 100.3757 501.3069 99.30013 502.3825 99.30013 503.7093L99.30013 503.7093L99.30013 513.319C 99.30013 514.6458 100.3757 515.7214 101.7026 515.7214L101.7026 515.7214L128.93 515.7214C 130.2568 515.7214 131.3324 514.6458 131.3324 513.319z" stroke="none" fill="#F7F7F7" fill-rule="evenodd" /><path id="399" transform="matrix(1 0 0 -1 0 842)" d="M130.5316 508.5141L130.5316 503.7093C 130.5316 502.8247 129.8146 502.1077 128.93 502.1077L128.93 502.1077L101.7026 502.1077C 100.818 502.1077 100.1009 502.8247 100.1009 503.7093L100.1009 503.7093L100.1009 513.319C 100.1009 514.2035 100.818 514.9206 101.7026 514.9206L101.7026 514.9206L128.93 514.9206C 129.8146 514.9206 130.5316 514.2035 130.5316 513.319zM131.3324 508.5141L131.3324 503.7093C 131.3324 502.3825 130.2568 501.3069 128.93 501.3069L128.93 501.3069L101.7026 501.3069C 100.3757 501.3069 99.30013 502.3825 99.30013 503.7093L99.30013 503.7093L99.30013 513.319C 99.30013 514.6458 100.3757 515.7214 101.7026 515.7214L101.7026 515.7214L128.93 515.7214C 130.2568 515.7214 131.3324 514.6458 131.3324 513.319z" stroke="none" fill="#EAEAEA" fill-rule="evenodd" /><path id="403" transform="matrix(1 0 0 -1 0 842)" d="M177.7793 508.5141L177.7793 503.7093C 177.7793 502.3825 176.7037 501.3069 175.3769 501.3069L175.3769 501.3069L148.1494 501.3069C 146.8226 501.3069 145.747 502.3825 145.747 503.7093L145.747 503.7093L145.747 513.319C 145.747 514.6458 146.8226 515.7214 148.1494 515.7214L148.1494 515.7214L175.3769 515.7214C 176.7037 515.7214 177.7793 514.6458 177.7793 513.319z" stroke="none" fill="#F7F7F7" fill-rule="evenodd" /><path id="404" transform="matrix(1 0 0 -1 0 842)" d="M176.9785 508.5141L176.9785 503.7093C 176.9785 502.8247 176.2614 502.1077 175.3769 502.1077L175.3769 502.1077L148.1494 502.1077C 147.2648 502.1077 146.5478 502.8247 146.5478 503.7093L146.5478 503.7093L146.5478 513.319C 146.5478 514.2035 147.2648 514.9206 148.1494 514.9206L148.1494 514.9206L175.3769 514.9206C 176.2614 514.9206 176.9785 514.2035 176.9785 513.319zM177.7793 508.5141L177.7793 503.7093C 177.7793 502.3825 176.7037 501.3069 175.3769 501.3069L175.3769 501.3069L148.1494 501.3069C 146.8226 501.3069 145.747 502.3825 145.747 503.7093L145.747 503.7093L145.747 513.319C 145.747 514.6458 146.8226 515.7214 148.1494 515.7214L148.1494 515.7214L175.3769 515.7214C 176.7037 515.7214 177.7793 514.6458 177.7793 513.319z" stroke="none" fill="#EAEAEA" fill-rule="evenodd" /><path id="408" transform="matrix(1 0 0 -1 0 842)" d="M238.6406 508.5141L238.6406 503.7093C 238.6406 502.3825 237.565 501.3069 236.2382 501.3069L236.2382 501.3069L197.7995 501.3069C 196.4726 501.3069 195.397 502.3825 195.397 503.7093L195.397 503.7093L195.397 513.319C 195.397 514.6458 196.4726 515.7214 197.7995 515.7214L197.7995 515.7214L236.2382 515.7214C 237.565 515.7214 238.6406 514.6458 238.6406 513.319z" stroke="none" fill="#F7F7F7" fill-rule="evenodd" /><path id="409" transform="matrix(1 0 0 -1 0 842)" d="M237.8398 508.5141L237.8398 503.7093C 237.8398 502.8247 237.1228 502.1077 236.2382 502.1077L236.2382 502.1077L197.7995 502.1077C 196.9149 502.1077 196.1978 502.8247 196.1978 503.7093L196.1978 503.7093L196.1978 513.319C 196.1978 514.2035 196.9149 514.9206 197.7995 514.9206L197.7995 514.9206L236.2382 514.9206C 237.1228 514.9206 237.8398 514.2035 237.8398 513.319zM238.6406 508.5141L238.6406 503.7093C 238.6406 502.3825 237.565 501.3069 236.2382 501.3069L236.2382 501.3069L197.7995 501.3069C 196.4726 501.3069 195.397 502.3825 195.397 503.7093L195.397 503.7093L195.397 513.319C 195.397 514.6458 196.4726 515.7214 197.7995 515.7214L197.7995 515.7214L236.2382 515.7214C 237.565 515.7214 238.6406 514.6458 238.6406 513.319z" stroke="none" fill="#EAEAEA" fill-rule="evenodd" /><path id="414" transform="matrix(1 0 0 -1 0 842)" d="M288.2907 508.5141L288.2907 503.7093C 288.2907 502.3825 287.2151 501.3069 285.8883 501.3069L285.8883 501.3069L258.6608 501.3069C 257.334 501.3069 256.2584 502.3825 256.2584 503.7093L256.2584 503.7093L256.2584 513.319C 256.2584 514.6458 257.334 515.7214 258.6608 515.7214L258.6608 515.7214L285.8883 515.7214C 287.2151 515.7214 288.2907 514.6458 288.2907 513.319z" stroke="none" fill="#F7F7F7" fill-rule="evenodd" /><path id="415" transform="matrix(1 0 0 -1 0 842)" d="M287.4899 508.5141L287.4899 503.7093C 287.4899 502.8247 286.7728 502.1077 285.8883 502.1077L285.8883 502.1077L258.6608 502.1077C 257.7763 502.1077 257.0592 502.8247 257.0592 503.7093L257.0592 503.7093L257.0592 513.319C 257.0592 514.2035 257.7763 514.9206 258.6608 514.9206L258.6608 514.9206L285.8883 514.9206C 286.7728 514.9206 287.4899 514.2035 287.4899 513.319zM288.2907 508.5141L288.2907 503.7093C 288.2907 502.3825 287.2151 501.3069 285.8883 501.3069L285.8883 501.3069L258.6608 501.3069C 257.334 501.3069 256.2584 502.3825 256.2584 503.7093L256.2584 503.7093L256.2584 513.319C 256.2584 514.6458 257.334 515.7214 258.6608 515.7214L258.6608 515.7214L285.8883 515.7214C 287.2151 515.7214 288.2907 514.6458 288.2907 513.319z" stroke="none" fill="#EAEAEA" fill-rule="evenodd" /><path id="434" transform="matrix(1 0 0 -1 0 842)" d="M86.48721 478.8843L86.48721 474.0794C 86.48721 472.7526 85.41161 471.677 84.08479 471.677L84.08479 471.677L34.43472 471.677C 33.1079 471.677 32.0323 472.7526 32.0323 474.0794L32.0323 474.0794L32.0323 483.6891C 32.0323 485.0159 33.1079 486.0915 34.43472 486.0915L34.43472 486.0915L84.08479 486.0915C 85.41161 486.0915 86.48721 485.0159 86.48721 483.6891z" stroke="none" fill="#F7F7F7" fill-rule="evenodd" /><path id="435" transform="matrix(1 0 0 -1 0 842)" d="M85.68641 478.8843L85.68641 474.0794C 85.68641 473.1949 84.96934 472.4778 84.08479 472.4778L84.08479 472.4778L34.43472 472.4778C 33.55018 472.4778 32.83311 473.1949 32.83311 474.0794L32.83311 474.0794L32.83311 483.6891C 32.83311 484.5736 33.55018 485.2907 34.43472 485.2907L34.43472 485.2907L84.08479 485.2907C 84.96934 485.2907 85.68641 484.5736 85.68641 483.6891zM86.48721 478.8843L86.48721 474.0794C 86.48721 472.7526 85.41161 471.677 84.08479 471.677L84.08479 471.677L34.43472 471.677C 33.1079 471.677 32.0323 472.7526 32.0323 474.0794L32.0323 474.0794L32.0323 483.6891C 32.0323 485.0159 33.1079 486.0915 34.43472 486.0915L34.43472 486.0915L84.08479 486.0915C 85.41161 486.0915 86.48721 485.0159 86.48721 483.6891z" stroke="none" fill="#EAEAEA" fill-rule="evenodd" /><path id="553" transform="matrix(1 0 0 -1 0 842)" d="M30.43069 409.214L86.48721 409.214L86.48721 408.5133L30.43069 408.5133z" stroke="none" fill="#4082C3" fill-rule="nonzero" /><path id="707" transform="matrix(1 0 0 -1 0 842)" d="M86.48721 331.5357L86.48721 326.7308C 86.48721 325.404 85.41161 324.3284 84.08479 324.3284L84.08479 324.3284L34.43472 324.3284C 33.1079 324.3284 32.0323 325.404 32.0323 326.7308L32.0323 326.7308L32.0323 336.3405C 32.0323 337.6673 33.1079 338.7429 34.43472 338.7429L34.43472 338.7429L84.08479 338.7429C 85.41161 338.7429 86.48721 337.6673 86.48721 336.3405z" stroke="none" fill="#F7F7F7" fill-rule="evenodd" /><path id="708" transform="matrix(1 0 0 -1 0 842)" d="M85.68641 331.5357L85.68641 326.7308C 85.68641 325.8463 84.96934 325.1292 84.08479 325.1292L84.08479 325.1292L34.43472 325.1292C 33.55018 325.1292 32.83311 325.8463 32.83311 326.7308L32.83311 326.7308L32.83311 336.3405C 32.83311 337.2251 33.55018 337.9421 34.43472 337.9421L34.43472 337.9421L84.08479 337.9421C 84.96934 337.9421 85.68641 337.2251 85.68641 336.3405zM86.48721 331.5357L86.48721 326.7308C 86.48721 325.404 85.41161 324.3284 84.08479 324.3284L84.08479 324.3284L34.43472 324.3284C 33.1079 324.3284 32.0323 325.404 32.0323 326.7308L32.0323 326.7308L32.0323 336.3405C 32.0323 337.6673 33.1079 338.7429 34.43472 338.7429L34.43472 338.7429L84.08479 338.7429C 85.41161 338.7429 86.48721 337.6673 86.48721 336.3405z" stroke="none" fill="#EAEAEA" fill-rule="evenodd" /><path id="775" transform="matrix(1 0 0 -1 0 842)" d="M45.64603 245.0487C 45.64603 244.1638 44.92896 243.4471 44.04441 243.4471C 43.15987 243.4471 42.44279 244.1638 42.44279 245.0487C 42.44279 245.9336 43.15987 246.6504 44.04441 246.6504C 44.92896 246.6504 45.64603 245.9336 45.64603 245.0487z" stroke="#000000" stroke-width="0.8008075" fill="#000000" fill-rule="evenodd" /><path id="796" transform="matrix(1 0 0 -1 0 842)" d="M45.64603 227.431C 45.64603 226.5461 44.92896 225.8293 44.04441 225.8293C 43.15987 225.8293 42.44279 226.5461 42.44279 227.431C 42.44279 228.3158 43.15987 229.0326 44.04441 229.0326C 44.92896 229.0326 45.64603 228.3158 45.64603 227.431z" stroke="#000000" stroke-width="0.8008075" fill="#000000" fill-rule="evenodd" /><path id="812" transform="matrix(1 0 0 -1 0 842)" d="M45.64603 209.8132C 45.64603 208.9283 44.92896 208.2115 44.04441 208.2115C 43.15987 208.2115 42.44279 208.9283 42.44279 209.8132C 42.44279 210.6981 43.15987 211.4148 44.04441 211.4148C 44.92896 211.4148 45.64603 210.6981 45.64603 209.8132z" stroke="#000000" stroke-width="0.8008075" fill="#000000" fill-rule="evenodd" /><path id="844" transform="matrix(1 0 0 -1 0 842)" d="M45.64603 192.1954C 45.64603 191.3105 44.92896 190.5939 44.04441 190.5939C 43.15987 190.5939 42.44279 191.3105 42.44279 192.1954C 42.44279 193.0803 43.15987 193.7971 44.04441 193.7971C 44.92896 193.7971 45.64603 193.0803 45.64603 192.1954z" stroke="#000000" stroke-width="0.8008075" fill="#000000" fill-rule="evenodd" /><path id="867" transform="matrix(1 0 0 -1 0 842)" d="M45.64603 174.5776C 45.64603 173.6929 44.92896 172.9761 44.04441 172.9761C 43.15987 172.9761 42.44279 173.6929 42.44279 174.5776C 42.44279 175.4625 43.15987 176.1793 44.04441 176.1793C 44.92896 176.1793 45.64603 175.4625 45.64603 174.5776z" stroke="#000000" stroke-width="0.8008075" fill="#000000" fill-rule="evenodd" /><path id="882" transform="matrix(1 0 0 -1 0 842)" d="M45.64603 156.96C 45.64603 156.0751 44.92896 155.3583 44.04441 155.3583C 43.15987 155.3583 42.44279 156.0751 42.44279 156.96C 42.44279 157.8448 43.15987 158.5615 44.04441 158.5615C 44.92896 158.5615 45.64603 157.8448 45.64603 156.96z" stroke="#000000" stroke-width="0.8008075" fill="#000000" fill-rule="evenodd" /><path id="900" transform="matrix(1 0 0 -1 0 842)" d="M45.64603 139.3422C 45.64603 138.4573 44.92896 137.7406 44.04441 137.7406C 43.15987 137.7406 42.44279 138.4573 42.44279 139.3422C 42.44279 140.2271 43.15987 140.9437 44.04441 140.9437C 44.92896 140.9437 45.64603 140.2271 45.64603 139.3422z" stroke="#000000" stroke-width="0.8008075" fill="#000000" fill-rule="evenodd" /><path id="915" transform="matrix(1 0 0 -1 0 842)" d="M45.64603 71.27356C 45.64603 70.38867 44.92896 69.67188 44.04441 69.67188C 43.15987 69.67188 42.44279 70.38867 42.44279 71.27356C 42.44279 72.15845 43.15987 72.87512 44.04441 72.87512C 44.92896 72.87512 45.64603 72.15845 45.64603 71.27356z" stroke="#000000" stroke-width="0.8008075" fill="#000000" fill-rule="evenodd" /></g></g></g></svg>